<?xml version="1.0" encoding="utf-8"?>
<!-- Generator: Adobe Illustrator 16.0.0, SVG Export Plug-In . SVG Version: 6.00 Build 0)  -->
<!DOCTYPE svg PUBLIC "-//W3C//DTD SVG 1.1//EN" "http://www.w3.org/Graphics/SVG/1.1/DTD/svg11.dtd">
<svg version="1.1" id="Layer_1" xmlns="http://www.w3.org/2000/svg" xmlns:xlink="http://www.w3.org/1999/xlink" x="0px" y="0px"
	 width="850.389px" height="877px" viewBox="0 0 850.389 877" enable-background="new 0 0 850.389 877" xml:space="preserve">
<g>
	<path d="M602.193,493.902c28.942-38.166,44.241-83.722,44.241-131.74c0-58.877-23.092-114.07-65.021-155.412
		c-41.923-41.333-97.485-63.654-156.371-62.804c-57.062,0.808-110.825,23.705-151.382,64.475
		c-40.556,40.77-63.176,94.651-63.693,151.721c-0.443,48.926,14.943,95.298,44.499,134.109
		c47.979,63.005,74.402,140.181,74.402,217.312v84.397c0,37.437,30.456,67.892,67.894,67.892h63.149
		c37.438,0,67.894-30.458,67.894-67.892v-84.392C527.805,633.585,553.342,558.315,602.193,493.902z M276.725,477.3
		c-25.757-33.822-39.167-74.247-38.78-116.901c0.932-102.476,85.038-187.023,187.492-188.474
		c51.396-0.689,99.784,18.72,136.329,54.753c36.556,36.041,56.687,84.158,56.687,135.486c0,41.862-13.331,81.57-38.556,114.832
		c-51.471,67.872-79.185,147.054-80.318,229.311H356.81C355.64,624.848,327.305,543.719,276.725,477.3z M356.849,786.479v-11.325
		l142.976,16.38v4.429c0,2.331-0.242,4.604-0.627,6.825L356.849,786.479z M356.849,746.989v-12.702h142.976v29.082L356.849,746.989z
		 M396.76,835.874c-15.029,0-28.134-8.356-34.94-20.663l120.442,13.799c-6.382,4.329-14.074,6.862-22.351,6.862H396.76V835.874z"/>
	<path d="M289.85,383.207c-1.091-7.321-1.611-14.843-1.542-22.354c0.07-7.727-6.136-14.047-13.862-14.116
		c-7.674-0.067-14.046,6.135-14.116,13.86c-0.082,8.974,0.539,17.967,1.847,26.736c1.035,6.943,7.005,11.929,13.821,11.929
		c0.687,0,1.382-0.05,2.081-0.153C285.718,397.968,290.99,390.85,289.85,383.207L289.85,383.207z"/>
	<path d="M372.182,595.715c1.447,0,2.921-0.229,4.372-0.704c7.341-2.413,11.335-10.319,8.921-17.659
		c-15.505-47.15-38.613-91.08-68.684-130.564c-4.97-6.526-9.373-13.479-13.087-20.666c-3.549-6.865-11.989-9.551-18.854-6.003
		c-6.862,3.548-9.551,11.988-6.003,18.854c4.458,8.621,9.733,16.954,15.686,24.77c28.178,37.001,49.832,78.166,64.361,122.352
		C360.83,591.979,366.302,595.714,372.182,595.715L372.182,595.715z"/>
	<path d="M575.197,410.068c-7.096-3.059-15.328,0.219-18.384,7.313c-4.432,10.293-10.168,20.11-17.047,29.181
		c-4.669,6.155-3.463,14.933,2.693,19.602c2.526,1.918,5.496,2.843,8.441,2.843c4.229,0,8.407-1.908,11.159-5.538
		c8.243-10.87,15.122-22.65,20.45-35.018C585.568,421.355,582.294,413.124,575.197,410.068L575.197,410.068z"/>
	<path d="M428.196,222.271c77.137,0,139.893,62.757,139.893,139.894c0,4.386-0.201,8.805-0.6,13.135
		c-0.705,7.694,4.958,14.503,12.653,15.21c0.435,0.039,0.865,0.061,1.294,0.061c7.15,0,13.25-5.452,13.916-12.712
		c0.474-5.178,0.717-10.456,0.717-15.692c0-92.565-75.308-167.874-167.873-167.874c-7.727,0-13.99,6.264-13.99,13.99
		C414.205,216.008,420.469,222.271,428.196,222.271L428.196,222.271z"/>
	<path d="M428.196,119.792c7.728,0,13.99-6.264,13.99-13.99V27.456c0-7.727-6.264-13.991-13.99-13.991
		c-7.726,0-13.99,6.264-13.99,13.991v78.346C414.204,113.527,420.469,119.792,428.196,119.792z"/>
	<path d="M286.658,147.438c2.593,4.489,7.294,6.998,12.129,6.998c2.372,0,4.778-0.604,6.98-1.877
		c6.691-3.862,8.985-12.42,5.122-19.109l-39.153-67.825c-3.864-6.693-12.42-8.986-19.11-5.123s-8.985,12.42-5.122,19.111
		L286.658,147.438z"/>
	<path d="M727.176,521.062l-67.825-39.154c-6.692-3.864-15.249-1.57-19.11,5.123c-3.862,6.689-1.57,15.247,5.122,19.109
		l67.825,39.154c2.203,1.272,4.607,1.877,6.982,1.877c4.835,0,9.537-2.511,12.128-6.999
		C736.16,533.481,733.866,524.925,727.176,521.062L727.176,521.062z"/>
	<path d="M129.213,208.146l67.825,39.153c2.203,1.272,4.606,1.877,6.981,1.877c4.835,0,9.537-2.511,12.128-6.999
		c3.863-6.689,1.571-15.247-5.122-19.109l-67.824-39.154c-6.69-3.865-15.247-1.571-19.11,5.122
		C120.228,195.729,122.52,204.282,129.213,208.146z"/>
	<path d="M765.342,350.613h-78.347c-7.727,0-13.989,6.264-13.989,13.989c0,7.727,6.264,13.99,13.989,13.99h78.347
		c7.727,0,13.989-6.264,13.989-13.99C779.331,356.877,773.07,350.613,765.342,350.613z"/>
	<path d="M183.382,364.604c0-7.727-6.264-13.989-13.99-13.989H91.046c-7.728,0-13.99,6.264-13.99,13.989
		c0,7.727,6.264,13.99,13.99,13.99h78.346C177.119,378.594,183.382,372.33,183.382,364.604z"/>
	<path d="M652.368,249.178c2.372,0,4.778-0.604,6.981-1.877l67.825-39.154c6.69-3.861,8.984-12.419,5.122-19.109
		c-3.862-6.691-12.421-8.985-19.11-5.122l-67.825,39.154c-6.69,3.862-8.984,12.42-5.122,19.109
		C642.83,246.667,647.534,249.178,652.368,249.178L652.368,249.178z"/>
	<path d="M197.038,481.908l-67.825,39.152c-6.691,3.863-8.985,12.421-5.122,19.111c2.591,4.488,7.294,6.999,12.129,6.999
		c2.372,0,4.778-0.604,6.981-1.877l67.824-39.154c6.691-3.862,8.985-12.42,5.122-19.109
		C212.287,480.337,203.726,478.045,197.038,481.908z"/>
	<path d="M550.619,152.559c2.203,1.272,4.607,1.877,6.981,1.877c4.836,0,9.538-2.511,12.129-6.998l39.154-67.826
		c3.862-6.691,1.568-15.248-5.122-19.111c-6.689-3.863-15.248-1.571-19.11,5.123l-39.153,67.825
		C541.635,140.139,543.929,148.695,550.619,152.559L550.619,152.559z"/>
</g>
</svg>
