<?xml version="1.0" encoding="utf-8"?>
<!-- Generator: Adobe Illustrator 16.0.0, SVG Export Plug-In . SVG Version: 6.00 Build 0)  -->
<!DOCTYPE svg PUBLIC "-//W3C//DTD SVG 1.1//EN" "http://www.w3.org/Graphics/SVG/1.1/DTD/svg11.dtd">
<svg version="1.1" id="Layer_1" xmlns="http://www.w3.org/2000/svg" xmlns:xlink="http://www.w3.org/1999/xlink" x="0px" y="0px"
	 width="850.389px" height="877px" viewBox="0 270.16 850.389 877" enable-background="new 0 270.16 850.389 877"
	 xml:space="preserve">
<path d="M599.193,763.902c28.942-38.166,44.241-83.721,44.241-131.74c0-58.877-23.092-114.07-65.021-155.412
	c-41.923-41.333-97.486-63.654-156.371-62.804c-57.063,0.808-110.826,23.705-151.383,64.475
	c-40.555,40.769-63.175,94.651-63.693,151.721c-0.443,48.925,14.943,95.298,44.499,134.109
	c47.979,63.005,74.403,140.181,74.403,217.312v84.397c0,37.436,30.456,67.892,67.893,67.892h63.15
	c37.437,0,67.893-30.458,67.893-67.892v-84.392C524.805,903.585,550.342,828.315,599.193,763.902z M273.725,747.3
	c-25.757-33.822-39.167-74.247-38.78-116.902c0.931-102.475,85.038-187.023,187.492-188.473
	c51.396-0.69,99.784,18.72,136.329,54.753c36.556,36.041,56.687,84.158,56.687,135.486c0,41.862-13.331,81.57-38.556,114.832
	c-51.471,67.872-79.185,147.054-80.318,229.311H353.81C352.64,894.848,324.305,813.719,273.725,747.3z M353.849,1056.479v-11.326
	l142.976,16.38v4.429c0,2.331-0.243,4.604-0.627,6.825L353.849,1056.479z M353.849,1016.989v-12.702h142.976v29.082
	L353.849,1016.989z M393.76,1105.874c-15.029,0-28.134-8.356-34.94-20.663l120.442,13.799c-6.382,4.329-14.074,6.862-22.35,6.862
	H393.76V1105.874z M286.85,653.207c-1.091-7.321-1.611-14.843-1.542-22.353c0.07-7.727-6.136-14.047-13.862-14.117
	c-7.674-0.067-14.046,6.135-14.117,13.861c-0.082,8.973,0.539,17.967,1.847,26.736c1.035,6.943,7.005,11.929,13.821,11.929
	c0.687,0,1.382-0.05,2.081-0.154C282.718,667.968,287.99,660.85,286.85,653.207L286.85,653.207z M369.182,865.715
	c1.447,0,2.921-0.229,4.372-0.704c7.341-2.413,11.335-10.32,8.921-17.659c-15.505-47.151-38.613-91.081-68.684-130.565
	c-4.969-6.526-9.373-13.479-13.087-20.666c-3.548-6.865-11.989-9.551-18.854-6.003c-6.862,3.548-9.551,11.988-6.003,18.854
	c4.458,8.621,9.733,16.954,15.685,24.769c28.178,37.001,49.833,78.166,64.362,122.352
	C357.831,861.979,363.302,865.714,369.182,865.715L369.182,865.715z M572.197,680.068c-7.096-3.058-15.328,0.219-18.384,7.314
	c-4.432,10.293-10.168,20.11-17.047,29.18c-4.669,6.156-3.463,14.933,2.693,19.602c2.527,1.918,5.497,2.843,8.442,2.843
	c4.229,0,8.407-1.908,11.159-5.538c8.243-10.87,15.122-22.651,20.45-35.018C582.568,691.355,579.294,683.124,572.197,680.068
	L572.197,680.068z M425.196,492.271c77.137,0,139.892,62.757,139.892,139.894c0,4.386-0.201,8.805-0.599,13.135
	c-0.705,7.694,4.958,14.503,12.653,15.21c0.435,0.039,0.865,0.06,1.294,0.06c7.15,0,13.25-5.452,13.916-12.712
	c0.474-5.177,0.717-10.456,0.717-15.692c0-92.565-75.308-167.874-167.873-167.874c-7.727,0-13.99,6.264-13.99,13.99
	S417.469,492.271,425.196,492.271L425.196,492.271z"/>
</svg>
