<?xml version="1.0" encoding="utf-8"?>
<!DOCTYPE svg PUBLIC "-//W3C//DTD SVG 1.1//EN" "http://www.w3.org/Graphics/SVG/1.1/DTD/svg11.dtd">
<svg version="1.1" id="Layer_1" xmlns="http://www.w3.org/2000/svg" xmlns:xlink="http://www.w3.org/1999/xlink" x="0px" y="0px"
	 width="214.285px" height="75px" viewBox="0 0 214.285 75" enable-background="new 0 0 214.285 75" xml:space="preserve">
<g>
	<path fill="#0096D6" d="M187.651,6.612c-13.46,0-24.372,10.911-24.372,24.372c0,13.46,10.912,24.371,24.372,24.371
		s24.372-10.911,24.372-24.371C212.023,17.523,201.111,6.612,187.651,6.612z M187.651,43.169c-6.73,0-12.187-5.456-12.187-12.186
		c0-6.73,5.456-12.187,12.187-12.187c6.729,0,12.187,5.456,12.187,12.187C199.838,37.713,194.381,43.169,187.651,43.169z"/>
	<path fill="#0096D6" d="M133.803,24.89c-3.363,0-6.092,2.728-6.093,6.093v0.001c0,6.729-5.455,12.186-12.186,12.186
		s-12.186-5.456-12.186-12.186v-0.001c-0.001-3.365-2.729-6.093-6.093-6.093c-3.365,0-6.094,2.728-6.094,6.093v0.001
		c0,13.46,10.912,24.371,24.372,24.371s24.372-10.911,24.372-24.371v-0.001C139.896,27.618,137.168,24.89,133.803,24.89z
		 M115.524,58.965c-3.365,0-6.093,2.729-6.093,6.094s2.728,6.093,6.093,6.093s6.093-2.728,6.093-6.093S118.89,58.965,115.524,58.965
		z"/>
	<path fill="#0096D6" d="M64.189,24.89c-5.983,0-11.445,2.178-15.705,5.734c-0.139,0.117-1.549,1.404-2.573,3.582
		c-1.024-2.178-2.435-3.465-2.573-3.582c-4.26-3.557-9.722-5.734-15.706-5.734c-13.46,0-24.371,10.911-24.371,24.372
		c0,3.365,2.728,6.093,6.093,6.093s6.093-2.728,6.093-6.093c0-6.73,5.456-12.187,12.186-12.187c6.73,0,12.187,5.456,12.187,12.187
		c0,3.365,2.728,6.093,6.093,6.093s6.093-2.728,6.093-6.093c0-6.73,5.456-12.187,12.186-12.187c6.73,0,12.187,5.456,12.187,12.187
		c0,3.365,2.728,6.093,6.093,6.093s6.093-2.728,6.093-6.093C88.562,35.801,77.65,24.89,64.189,24.89z"/>
	<path fill="#0096D6" d="M157.72,12.705c0-3.365-2.728-6.093-6.093-6.093s-6.093,2.728-6.093,6.093v0l0,0v36.557
		c0,3.365,2.728,6.093,6.093,6.093s6.093-2.728,6.093-6.093V12.705L157.72,12.705L157.72,12.705z"/>
</g>
</svg>
