<?xml version="1.0" encoding="utf-8"?>
<!-- Generator: Adobe Illustrator 16.0.0, SVG Export Plug-In . SVG Version: 6.00 Build 0)  -->
<!DOCTYPE svg PUBLIC "-//W3C//DTD SVG 1.1//EN" "http://www.w3.org/Graphics/SVG/1.1/DTD/svg11.dtd">
<svg version="1.1" id="Layer_1" xmlns="http://www.w3.org/2000/svg" xmlns:xlink="http://www.w3.org/1999/xlink" x="0px" y="0px"
	 width="850.389px" height="851px" viewBox="0 281.16 850.389 851" enable-background="new 0 281.16 850.389 851"
	 xml:space="preserve">
<g>
	<path d="M561.434,876.745V378.802c0-48.167-39.53-87.696-87.696-87.696c-48.167,0-88.027,39.197-88.027,87.696v497.943
		c-32.556,26.242-52.817,66.769-52.817,108.956c0,77.397,63.114,140.514,140.513,140.514c77.399,0,139.519-63.115,139.519-140.514
		C613.254,943.514,593.988,902.987,561.434,876.745z M473.738,1096.318c-60.457,0-109.621-49.163-109.621-109.621
		c0-38.533,20.265-73.744,52.817-94.008V379.466c0-31.558,25.578-57.8,57.8-57.8c31.558,0,57.8,25.578,57.8,57.8v512.892
		c31.559,20.263,52.817,55.475,52.817,94.008C583.358,1047.155,534.195,1096.318,473.738,1096.318z"/>
	<path d="M500.976,910.96V540.243c0-14.948-12.29-27.239-27.238-27.239s-27.239,12.291-27.239,27.239v370.384
		c-30.893,11.295-52.816,40.527-52.816,74.742c0,43.848,35.876,80.056,80.057,80.056s80.057-35.876,80.057-80.056
		C553.461,951.154,531.536,922.254,500.976,910.96z"/>
	<rect x="591.993" y="380.463" width="156.459" height="29.896"/>
	<rect x="591.993" y="479.785" width="81.054" height="29.896"/>
	<rect x="591.993" y="579.771" width="156.459" height="29.896"/>
	<rect x="591.993" y="679.096" width="81.054" height="29.896"/>
	<rect x="591.993" y="778.418" width="156.459" height="29.896"/>
</g>
<path d="M361.579,470.03c0-18.783-30.122-31.427-36.973-47.771c-7.026-16.932,4.93-47.103-7.69-59.846
	c-12.619-12.743-42.938-0.69-59.871-7.69c-16.318-6.779-28.986-36.973-47.745-36.973s-31.427,30.12-47.77,36.973
	c-16.909,7-47.104-5.078-59.848,7.69c-12.743,12.768-0.689,42.914-7.689,59.846c-6.779,16.345-36.974,28.988-36.974,47.771
	c0,18.782,30.122,31.427,36.974,47.745c7.099,16.932-4.979,47.078,7.788,59.845c12.769,12.768,42.938,0.69,59.849,7.69
	c16.342,6.779,28.986,36.974,47.769,36.974c18.783,0,31.428-30.12,47.745-36.974c16.935-7,47.104,5.077,59.872-7.69
	c12.768-12.768,0.665-42.914,7.69-59.845C331.457,501.457,361.579,488.787,361.579,470.03z M209.399,533.205
	c-34.904,0-63.197-28.296-63.197-63.2s28.293-63.2,63.197-63.2c34.902,0,63.199,28.295,63.199,63.2c0,0.008,0,0.017,0,0.025
	c0,34.891-28.284,63.175-63.175,63.175C209.416,533.205,209.406,533.205,209.399,533.205z"/>
</svg>
